<svg width="390" height="844" viewBox="0 0 390 844" fill="none" xmlns="http://www.w3.org/2000/svg">
<g clip-path="url(#clip0_1_3)">
<rect width="390" height="844" fill="white"/>
<g clip-path="url(#clip1_1_3)">
<rect opacity="0.2" x="310" y="-117.02" width="256" height="256" rx="24" transform="rotate(45 310 -117.02)" fill="url(#paint0_linear_1_3)"/>
<rect opacity="0.15" x="-49.86" y="150.06" width="192" height="192" rx="16" transform="rotate(-12 -49.86 150.06)" fill="url(#paint1_linear_1_3)"/>
<rect opacity="0.1" x="260.7" y="422.76" width="128" height="128" rx="24" transform="rotate(12 260.7 422.76)" fill="#342AF2"/>
<rect opacity="0.25" x="-27.65" y="780" width="288" height="288" rx="32" transform="rotate(-45 -27.65 780)" fill="url(#paint2_linear_1_3)"/>
<path opacity="0.4" d="M60.6863 205.744C66.9347 199.495 77.0653 199.495 83.3137 205.744L117.255 239.685C123.503 245.933 123.503 256.064 117.255 262.312L83.3137 296.253C77.0653 302.502 66.9347 302.502 60.6863 296.253L26.7452 262.312C20.4968 256.064 20.4968 245.933 26.7452 239.685L60.6863 205.744Z" fill="#342AF2"/>
<rect opacity="0.3" x="278" y="562.66" width="64" height="64" rx="12" fill="#150E9F"/>
<rect opacity="0.5" x="129.98" y="585" width="48" height="48" rx="8" fill="#342AF2"/>
<rect opacity="0.2" x="358" y="402.12" width="96" height="96" rx="16" transform="rotate(45 358 402.12)" fill="#150E9F"/>
<rect opacity="0.25" x="-47.2" y="366" width="112" height="112" rx="24" transform="rotate(-45 -47.2 366)" fill="#342AF2"/>
</g>
</g>
<defs>
<linearGradient id="paint0_linear_1_3" x1="310" y1="-117.02" x2="566" y2="138.98" gradientUnits="userSpaceOnUse">
<stop stop-color="#150E9F"/>
<stop offset="1" stop-color="#342AF2"/>
</linearGradient>
<linearGradient id="paint1_linear_1_3" x1="-49.86" y1="342.06" x2="142.14" y2="150.06" gradientUnits="userSpaceOnUse">
<stop stop-color="#050076"/>
<stop offset="1" stop-color="#342AF2"/>
</linearGradient>
<linearGradient id="paint2_linear_1_3" x1="116.35" y1="1068" x2="116.35" y2="780" gradientUnits="userSpaceOnUse">
<stop stop-color="#050076"/>
<stop offset="1" stop-color="#342AF2"/>
</linearGradient>
<clipPath id="clip0_1_3">
<rect width="390" height="844" fill="white"/>
</clipPath>
<clipPath id="clip1_1_3">
<rect width="390" height="844" fill="white"/>
</clipPath>
</defs>
</svg>
